# Blender v2.79 (sub 0) OBJ File: 'Project2.blend'
# www.blender.org
o Cube.003
v -5.899057 0.040619 6.828837
v -5.899057 2.240619 6.828837
v -5.899057 0.040619 4.828837
v -5.899057 2.240619 4.828837
v -5.799057 0.040619 6.828837
v -5.799057 2.240619 6.828837
v -5.799057 0.040619 4.828837
v -5.799057 2.240619 4.828837
v -5.899057 0.040619 4.828837
v -5.899057 0.040619 4.828837
v -5.899057 0.040619 6.828837
v -5.899057 0.040619 6.828837
v -5.899057 2.240619 6.828837
v -5.899057 2.240619 6.828837
v -5.899057 2.240619 4.828837
v -5.899057 2.240619 4.828837
v -5.799057 0.040619 4.828837
v -5.799057 0.040619 4.828837
v -5.799057 2.240619 4.828837
v -5.799057 2.240619 4.828837
v -5.799057 0.040619 6.828837
v -5.799057 0.040619 6.828837
v -5.799057 2.240619 6.828837
v -5.799057 2.240619 6.828837
vt -0.000179 -0.004425
vt 0.999973 1.004821
vt -0.000179 0.998049
vt 0.092591 0.813642
vt 0.113716 0.843779
vt 0.092591 0.843779
vt 1.000841 1.004821
vt 0.000689 -0.004425
vt 1.000841 0.002347
vt 0.113690 0.843779
vt 0.092565 0.813642
vt 0.113690 0.813642
vt 0.092491 0.843779
vt 0.113615 0.813642
vt 0.113615 0.843779
vt 0.092617 0.843755
vt 0.113742 0.813618
vt 0.113742 0.843755
vt 0.999973 0.002347
vt 0.113716 0.813642
vt 0.000689 0.998049
vt 0.092565 0.843779
vt 0.092491 0.813642
vt 0.092617 0.813618
vn -1.0000 0.0000 0.0000
vn 0.0000 0.0000 -1.0000
vn 1.0000 0.0000 0.0000
vn 0.0000 0.0000 1.0000
vn 0.0000 -1.0000 0.0000
vn 0.0000 1.0000 0.0000
s off
f 13/1/1 9/2/1 11/3/1
f 16/4/2 17/5/2 10/6/2
f 20/7/3 21/8/3 18/9/3
f 24/10/4 12/11/4 22/12/4
f 7/13/5 1/14/5 3/15/5
f 4/16/6 6/17/6 8/18/6
f 13/1/1 15/19/1 9/2/1
f 16/4/2 19/20/2 17/5/2
f 20/7/3 23/21/3 21/8/3
f 24/10/4 14/22/4 12/11/4
f 7/13/5 5/23/5 1/14/5
f 4/16/6 2/24/6 6/17/6
o Cube.002
v -5.899057 0.040619 8.829184
v -5.899057 2.240619 8.829184
v -5.899057 0.040619 6.829183
v -5.899057 2.240619 6.829183
v -5.799057 0.040619 8.829184
v -5.799057 2.240619 8.829184
v -5.799057 0.040619 6.829183
v -5.799057 2.240619 6.829183
v -5.899057 0.040619 6.829183
v -5.899057 0.040619 6.829183
v -5.899057 0.040619 8.829184
v -5.899057 0.040619 8.829184
v -5.899057 2.240619 8.829184
v -5.899057 2.240619 8.829184
v -5.899057 2.240619 6.829183
v -5.899057 2.240619 6.829183
v -5.799057 0.040619 6.829183
v -5.799057 0.040619 6.829183
v -5.799057 2.240619 6.829183
v -5.799057 2.240619 6.829183
v -5.799057 0.040619 8.829184
v -5.799057 0.040619 8.829184
v -5.799057 2.240619 8.829184
v -5.799057 2.240619 8.829184
vt -0.000179 -0.004425
vt 0.999973 1.004821
vt -0.000179 0.998049
vt 0.092591 0.813642
vt 0.113716 0.843779
vt 0.092591 0.843779
vt 1.000841 1.004821
vt 0.000689 -0.004425
vt 1.000841 0.002347
vt 0.113690 0.843779
vt 0.092565 0.813642
vt 0.113690 0.813642
vt 0.092491 0.843779
vt 0.113615 0.813642
vt 0.113615 0.843779
vt 0.092617 0.843755
vt 0.113742 0.813618
vt 0.113742 0.843755
vt 0.999973 0.002347
vt 0.113716 0.813642
vt 0.000689 0.998049
vt 0.092565 0.843779
vt 0.092491 0.813642
vt 0.092617 0.813618
vn -1.0000 0.0000 0.0000
vn 0.0000 0.0000 -1.0000
vn 1.0000 0.0000 0.0000
vn 0.0000 0.0000 1.0000
vn 0.0000 -1.0000 0.0000
vn 0.0000 1.0000 0.0000
s off
f 37/25/7 33/26/7 35/27/7
f 40/28/8 41/29/8 34/30/8
f 44/31/9 45/32/9 42/33/9
f 48/34/10 36/35/10 46/36/10
f 31/37/11 25/38/11 27/39/11
f 28/40/12 30/41/12 32/42/12
f 37/25/7 39/43/7 33/26/7
f 40/28/8 43/44/8 41/29/8
f 44/31/9 47/45/9 45/32/9
f 48/34/10 38/46/10 36/35/10
f 31/37/11 29/47/11 25/38/11
f 28/40/12 26/48/12 30/41/12
o Cube.001
v -2.044787 0.040619 6.981513
v -2.044787 2.240619 6.981513
v -2.044787 0.040619 4.981513
v -2.044787 2.240619 4.981513
v -1.944787 0.040619 6.981513
v -1.944787 2.240619 6.981513
v -1.944787 0.040619 4.981513
v -1.944787 2.240619 4.981513
v -2.044787 0.040619 4.981513
v -2.044787 0.040619 4.981513
v -2.044787 0.040619 6.981513
v -2.044787 0.040619 6.981513
v -2.044787 2.240619 6.981513
v -2.044787 2.240619 6.981513
v -2.044787 2.240619 4.981513
v -2.044787 2.240619 4.981513
v -1.944787 0.040619 4.981513
v -1.944787 0.040619 4.981513
v -1.944787 2.240619 4.981513
v -1.944787 2.240619 4.981513
v -1.944787 0.040619 6.981513
v -1.944787 0.040619 6.981513
v -1.944787 2.240619 6.981513
v -1.944787 2.240619 6.981513
vt -0.000179 -0.004425
vt 0.999973 1.004821
vt -0.000179 0.998049
vt 0.092591 0.813642
vt 0.113716 0.843779
vt 0.092591 0.843779
vt 1.000841 1.004821
vt 0.000689 -0.004425
vt 1.000841 0.002347
vt 0.113690 0.843779
vt 0.092565 0.813642
vt 0.113690 0.813642
vt 0.092491 0.843779
vt 0.113615 0.813642
vt 0.113615 0.843779
vt 0.092617 0.843755
vt 0.113742 0.813618
vt 0.113742 0.843755
vt 0.999973 0.002347
vt 0.113716 0.813642
vt 0.000689 0.998049
vt 0.092565 0.843779
vt 0.092491 0.813642
vt 0.092617 0.813618
vn -1.0000 0.0000 0.0000
vn 0.0000 0.0000 -1.0000
vn 1.0000 0.0000 0.0000
vn 0.0000 0.0000 1.0000
vn 0.0000 -1.0000 0.0000
vn 0.0000 1.0000 0.0000
s off
f 61/49/13 57/50/13 59/51/13
f 64/52/14 65/53/14 58/54/14
f 68/55/15 69/56/15 66/57/15
f 72/58/16 60/59/16 70/60/16
f 55/61/17 49/62/17 51/63/17
f 52/64/18 54/65/18 56/66/18
f 61/49/13 63/67/13 57/50/13
f 64/52/14 67/68/14 65/53/14
f 68/55/15 71/69/15 69/56/15
f 72/58/16 62/70/16 60/59/16
f 55/61/17 53/71/17 49/62/17
f 52/64/18 50/72/18 54/65/18
